<svg xmlns="http://www.w3.org/2000/svg" fill="none" viewBox="0 0 24 24" id="roundtransfervertical"><path fill="url(#paint0_linear_2461_18579)" fill-rule="evenodd" d="M6.50685 12.9974C6.81893 12.7251 7.29271 12.7573 7.56507 13.0693L9.25 15L9.25 7C9.25 6.58579 9.58579 6.25 10 6.25C10.4142 6.25 10.75 6.58579 10.75 7V17C10.75 17.3126 10.5561 17.5925 10.2633 17.7022C9.97062 17.812 9.6405 17.7287 9.43493 17.4932L6.43493 14.0557C6.16257 13.7436 6.19477 13.2698 6.50685 12.9974Z" clip-rule="evenodd"></path><path fill="url(#paint1_linear_2461_18579)" fill-rule="evenodd" d="M13.7367 6.29775C13.4439 6.40753 13.25 6.68737 13.25 7L13.25 17C13.25 17.4142 13.5858 17.75 14 17.75C14.4142 17.75 14.75 17.4142 14.75 17L14.75 9L16.4349 10.9307C16.7073 11.2427 17.1811 11.2749 17.4932 11.0026C17.8052 10.7302 17.8374 10.2564 17.5651 9.94435L14.5651 6.50685C14.3595 6.2713 14.0294 6.18798 13.7367 6.29775Z" clip-rule="evenodd"></path><path fill="url(#paint2_linear_2461_18579)" fill-rule="evenodd" d="M12 2.75C10.3139 2.75 8.73533 3.20043 7.37554 3.98703C7.017 4.19443 6.5582 4.07191 6.3508 3.71337C6.14339 3.35482 6.26591 2.89602 6.62446 2.68862C8.2064 1.77351 10.0432 1.25 12 1.25C17.9371 1.25 22.75 6.06294 22.75 12C22.75 17.9371 17.9371 22.75 12 22.75C6.06294 22.75 1.25 17.9371 1.25 12C1.25 10.0432 1.77351 8.2064 2.68862 6.62446C2.89602 6.26591 3.35482 6.14339 3.71337 6.3508C4.07191 6.5582 4.19443 7.017 3.98703 7.37554C3.20043 8.73533 2.75 10.3139 2.75 12C2.75 17.1086 6.89137 21.25 12 21.25C17.1086 21.25 21.25 17.1086 21.25 12C21.25 6.89137 17.1086 2.75 12 2.75Z" clip-rule="evenodd"></path><defs><linearGradient id="paint0_linear_2461_18579" x1="12" x2="12" y1="1.25" y2="22.75" gradientUnits="userSpaceOnUse"><stop stop-color="#4d889c" class="stopColor854d9c svgShape"></stop><stop offset="1" stop-color="#dff1f7" class="stopColorcd4ed3 svgShape"></stop></linearGradient><linearGradient id="paint1_linear_2461_18579" x1="12" x2="12" y1="1.25" y2="22.75" gradientUnits="userSpaceOnUse"><stop stop-color="#4d889c" class="stopColor854d9c svgShape"></stop><stop offset="1" stop-color="#dff1f7" class="stopColorcd4ed3 svgShape"></stop></linearGradient><linearGradient id="paint2_linear_2461_18579" x1="12" x2="12" y1="1.25" y2="22.75" gradientUnits="userSpaceOnUse"><stop stop-color="#4d889c" class="stopColor854d9c svgShape"></stop><stop offset="1" stop-color="#dff1f7" class="stopColorcd4ed3 svgShape"></stop></linearGradient></defs></svg>